<?xml version="1.0" encoding="utf-8"?>
<!-- Generator: Adobe Illustrator 21.1.0, SVG Export Plug-In . SVG Version: 6.00 Build 0)  -->
<svg version="1.1" id="Layer_1" xmlns="http://www.w3.org/2000/svg" xmlns:xlink="http://www.w3.org/1999/xlink" x="0px" y="0px"
	 viewBox="0 0 492 54" style="enable-background:new 0 0 492 54;" xml:space="preserve">
<style type="text/css">
	.st0{fill:#0E4F97;}
	.st1{fill:#FFFFFF;}
</style>
<g>
	<path class="st1" d="M7.2,53.4V10.5H0V0.6h25.1v9.9h-7.2v42.9H7.2z"/>
	<path class="st1" d="M46.9,53.4V31h-6.3v22.4H29.9V0.6h10.7v20.9h6.3V0.6h10.5v52.8H46.9z"/>
	<path class="st1" d="M63.9,53.4V0.6h23.7v9.9h-13v10.9H85v9.5H74.5v12.6h13.8v9.9H63.9z"/>
	<path class="st1" d="M107.8,53.4V10.5h-7.2V0.6h25.1v9.9h-7.2v42.9H107.8z"/>
	<path class="st1" d="M130.9,53.4V0.6h10.7v52.8H130.9z"/>
	<path class="st1" d="M175.1,53.4V21.2h-0.1l-5.7,32.2h-6.1l-5.9-32.2h-0.1v32.2h-9V0.6h13.2l4.6,27.2h0.1l5.2-27.2h12.7v52.8H175.1
		z"/>
	<path class="st1" d="M190.5,53.4V0.6h23.7v9.9h-13v10.9h10.4v9.5h-10.4v12.6H215v9.9H190.5z"/>
	<path class="st1" d="M234.9,14.8c-0.2-2.7-0.9-5.7-3.6-5.7c-1.9,0-2.6,1.3-2.6,3c0,9.9,16.3,12.7,16.3,28.4
		c0,8.4-5.1,13.5-13.8,13.5c-9.7,0-12.7-5.2-13.3-14.3l9.9-0.7c0.3,4,1,6.1,3.6,6.1c1.8,0,3-1.3,3-3.9c0-10.1-15.9-13-15.9-28.3
		c0-7.7,4.3-13,12.7-13c10,0,12.6,6.5,13.2,14.1L234.9,14.8z"/>
	<path class="st1" d="M258.1,27.1c0-19.9,3.6-27.1,14.6-27.1c11,0,14.6,7.2,14.6,27.1c0,17.6-3,26.9-14.6,26.9
		S258.1,44.7,258.1,27.1z M276.1,27.1c0-14.1-0.7-17.4-3.4-17.4c-2.6,0-3.4,3.3-3.4,17.4c0,15.5,1.2,17.7,3.4,17.7
		C274.9,44.7,276.1,42.6,276.1,27.1z"/>
	<path class="st1" d="M292.2,53.4V0.6h23.7v9.9h-13v10.9h10.4v9.5h-10.4v22.5H292.2z"/>
	<path class="st1" d="M329.6,53.4V0.6h10.7v52.8H329.6z"/>
	<path class="st1" d="M361.6,14.8c-0.2-2.7-0.9-5.7-3.6-5.7c-1.9,0-2.6,1.3-2.6,3c0,9.9,16.3,12.7,16.3,28.4
		c0,8.4-5.1,13.5-13.8,13.5c-9.7,0-12.7-5.2-13.3-14.3l9.9-0.7c0.3,4,1,6.1,3.6,6.1c1.8,0,3-1.3,3-3.9c0-10.1-15.9-13-15.9-28.3
		c0-7.7,4.3-13,12.7-13c10,0,12.6,6.5,13.2,14.1L361.6,14.8z"/>
	<path class="st1" d="M393,53.4L388.8,33h-2.4v20.5h-10.6V0.6h12.9c9.3,0,14.3,3.5,14.3,14.7c0,6.3-2,10-5,12.1l6.4,26H393z
		 M387.3,24.1c3.4,0,4.5-1.7,4.5-7.4c0-7.1-2.9-7.1-4.5-7.1h-1v14.4H387.3z"/>
	<path class="st1" d="M425.2,53.4L423.9,42h-6.5l-1.1,11.4h-10.9l8.2-52.8h13.7l8.8,52.8H425.2z M418.4,32.6h4.6l-2.2-19.9h-0.4
		L418.4,32.6z"/>
	<path class="st1" d="M439.6,53.4V0.6h23.7v9.9h-13v10.9h10.4v9.5h-10.4v12.6H464v9.9H439.6z"/>
	<path class="st1" d="M468.2,53.4V0.6h10.7v42.9H492v9.9H468.2z"/>
</g>
</svg>
