<?xml version="1.0" encoding="utf-8"?>
<!-- Generator: Adobe Illustrator 26.2.1, SVG Export Plug-In . SVG Version: 6.00 Build 0)  -->
<svg version="1.1" id="Layer_1" xmlns="http://www.w3.org/2000/svg" xmlns:xlink="http://www.w3.org/1999/xlink" x="0px" y="0px"
	 viewBox="0 0 443.7 100" style="enable-background:new 0 0 443.7 100;" xml:space="preserve">
<style type="text/css">
	.st0{fill:#161616;}
</style>
<g>
	<g>
		<path class="st0" d="M81.8,22.6l-2.7,4.6l0.5,0.5l4.6-2.4c0.5-0.2,0.8-0.7,0.8-1.2l0.3-2.4l-2.2,0.1
			C82.6,21.7,82.1,22.1,81.8,22.6z"/>
	</g>
	<g>
		<path class="st0" d="M82,18.2c0.5-0.5,0.6-1.3,0.3-1.9l-0.6-1.7l-2.1,1.1c-0.5,0.3-0.9,0.8-1,1.4l-1.1,5.2l0.7,0.4L82,18.2z"/>
	</g>
	<g>
		<path class="st0" d="M103.5,44.2l-2.9-1.8c-0.7-0.5-1.6-0.6-2.4-0.3l-4.1,1.3l0,0.8l5.2,1.8c1,0.3,2,0.1,2.8-0.5L103.5,44.2z"/>
	</g>
	<g>
		<path class="st0" d="M69.3,35.7c-0.3,0.4-0.5,0.8-0.4,1.3l0.3,3.4l0.7,0l2.2-2.8c0.4-0.5,0.5-1.3,0.2-1.9l-0.8-2.1L69.3,35.7z"/>
	</g>
	<g>
		<path class="st0" d="M67.8,26.8c-0.2,0.4-0.3,0.9-0.1,1.4l1.5,4.2l0.7,0l1.4-4.1c0.2-0.5,0.1-0.9-0.3-1.5l-1.6-2.4L67.8,26.8z"/>
	</g>
	<g>
		<path class="st0" d="M68.5,19.5c0.5-0.3,0.8-1.1,0.9-1.7l0.5-2.9l-2.4,0.1c-0.6,0-1.2,0.4-1.6,0.9l0,0l-2.7,4.7l0.7,0.8L68.5,19.5
			z"/>
	</g>
	<g>
		<path class="st0" d="M88.5,18.3c0.9-0.4,0.9-0.4,1.3-1.4l0.9-2.4l-2.9,0c-0.6,0-1.1,0.3-1.5,0.8l-2.6,4l0.6,0.7L88.5,18.3z"/>
	</g>
	<g>
		<path class="st0" d="M101.1,22.1c-0.7,0-1.3,0.5-1.5,1.1l-2.3,4.6l0.6,0.6l4.8-2.6c0.6-0.3,1-0.9,1-1.6l-0.3-2.1H101.1z"/>
	</g>
	<g>
		<path class="st0" d="M104,32.5l0.6-2.5l-2.7-0.8c-0.5-0.2-1.1,0-1.5,0.3l-4.5,3.9l0.3,0.8l6.2-0.3C103.2,33.8,103.8,33.3,104,32.5
			z"/>
	</g>
	<g>
		<path class="st0" d="M89.4,22.5l6.9-4.3c0.5-0.4,0.8-0.9,0.7-1.5l-0.2-2.1l-3.1,0.8c-0.5,0.1-0.9,0.5-1.2,1L88.8,22L89.4,22.5z"/>
	</g>
	<g>
		<path class="st0" d="M76.3,19.3c0.3-0.5,0.4-1.1,0.2-1.6l-1.6-3.2l-2.4,1.7c-0.4,0.3-0.4,1.2-0.5,1.7l0,0.1l-0.5,5.7l1,0.4
			L76.3,19.3z"/>
	</g>
	<g>
		<path class="st0" d="M41.1,21.5l-2.6-1.3l-0.1,3c-0.1,0.6,0.2,1.3,1,2l3,3l0.8-0.5l-1.1-5.1C41.8,22.1,41.6,21.8,41.1,21.5z"/>
	</g>
	<g>
		<path class="st0" d="M66.5,24.8l-0.3-2.3l-2.8,1.1c-0.8,0.2-0.9,1.1-1.3,2l-1.6,3.5l0.7,0.5l4.4-2.1C66.3,27,66.7,26.6,66.5,24.8z
			"/>
	</g>
	<g>
		<path class="st0" d="M53.3,26.2l0.7-0.1l0.2-3c0.1-0.7-0.3-1.4-0.9-1.8l-1.5-0.8l-0.6,1.7c-0.1,0.4-0.1,0.9,0.1,1.3L53.3,26.2z"/>
	</g>
	<g>
		<path class="st0" d="M38.9,17.9l4.5,2.8l0.7-0.5l-1.3-3.9c-0.2-0.6-0.7-1-1.3-1.2l-3-0.6L38.1,16C38,16.8,38.3,17.5,38.9,17.9z"/>
	</g>
	<g>
		<path class="st0" d="M45.3,24.4l3.2,2.9l0.6-0.6l-0.9-4c-0.1-0.5-0.5-1-1-1.1L45,21.1L44.7,23C44.5,23.5,44.8,24.1,45.3,24.4z"/>
	</g>
	<g>
		<path class="st0" d="M55.1,21l0.7-0.2l0.6-3.9c0-0.5-0.2-0.9-0.7-1.2L54,14.5l-1.4,1.9c-0.3,0.5-0.3,1.1,0,1.5L55.1,21z"/>
	</g>
	<g>
		<path class="st0" d="M62.6,18.2c0.5-0.2,0.8-0.6,0.8-1.1l-0.1-2.6l-2.8,0.2c-0.4,0.1-0.8,0.4-0.9,0.8L58,19.6l0.7,0.6L62.6,18.2z"
			/>
	</g>
	<g>
		<path class="st0" d="M59.4,32.3c-0.2,0.1-0.4,0.3-0.6,0.5l-1.7,1.7l0.1,0.6l2.8,0.1c0.6,0,1-0.4,1.4-1l0.8-1.8l-1.8-0.3
			C60,32.1,59.7,32.1,59.4,32.3z"/>
	</g>
	<g>
		<path class="st0" d="M55.9,27.5l3.9-2c0.6-0.3,1-0.9,0.9-1.6l-0.3-2.4l-2.6,1c-0.4,0.2-0.8,0.5-0.9,0.9L55.2,27L55.9,27.5z"/>
	</g>
	<g>
		<path class="st0" d="M45.8,17.4l3.5,3.2l0.8-0.3l-0.4-4c-0.1-0.7-0.6-1.2-1.3-1.4l-1.6-0.5l-1.3,1.2C45.2,16.3,45.3,17,45.8,17.4z
			"/>
	</g>
	<g>
		<path class="st0" d="M85.8,26L85.8,26l-2.4,4.5l0.6,0.5l4.4-2.4c0.5-0.3,0.8-0.8,0.8-1.3l0.2-2.6L87.1,25
			C86.5,25.1,86,25.5,85.8,26z"/>
	</g>
	<g>
		<path class="st0" d="M96.5,23.7l-3,0.6c-0.4,0-0.9,0.4-1.3,1.2l-2.5,4.4l0.5,0.6l4.6-2c0.8-0.3,1.3-1.2,1.3-2.2L96.5,23.7z"/>
	</g>
	<g>
		<path class="st0" d="M87.7,38.4L93,36c0.6-0.3,1-0.8,1-1.4l0.2-2l-3,0.2c-0.6,0-1.1,0.3-1.4,0.8l-2.7,4.2L87.7,38.4z"/>
	</g>
	<g>
		<path class="st0" d="M98.4,39.9l1.8-2.1l-3.3-1.3c-0.6-0.2-1.3-0.2-1.8,0.2l-4.4,3.4l0.3,0.7l6.1-0.3
			C97.6,40.4,98.1,40.2,98.4,39.9z"/>
	</g>
	<g>
		<path class="st0" d="M87.5,43.4c-0.3,0.1-0.6,0.4-0.8,0.7l-2.2,4l0.5,0.6l5.3-2.1c0.7-0.3,1.2-1,1.1-1.8l-0.2-2.5L87.5,43.4z"/>
	</g>
	<g>
		<path class="st0" d="M97,21.5l6-2.8c0.6-0.3,1-0.9,1-1.6l0-2.6l-3,0.3c-0.4,0.1-0.7,0.4-0.9,0.8l-3.4,5.3L97,21.5z"/>
	</g>
	<g>
		<path class="st0" d="M108.8,20c1.1-0.5,2.1-1,2.2-2c0.1-0.8,0.1-3.1,0.1-3.5l-2.9,0.4c-0.8,0-1.4,0.5-1.6,1.2l-2,4.7l0.6,0.6
			L108.8,20z"/>
	</g>
	<g>
		<path class="st0" d="M99.8,58.7c-0.4-0.4-1-0.6-1.6-0.4l-5.4,1l-0.1,0.8l5.6,2.4c0.6,0.2,1.2,0.2,1.7-0.1l2.2-1.4L99.8,58.7z"/>
	</g>
	<g>
		<path class="st0" d="M77.8,27.5l0.1-3.1l-2.6,0.8c-0.6,0.2-1,0.6-1.2,1.2l-1.5,5.4l0.6,0.4l3.9-3.1C77.5,28.8,77.8,28.5,77.8,27.5
			z"/>
	</g>
	<g>
		<path class="st0" d="M79.6,34.7c0.6-0.3,0.9-0.9,0.9-1.6l0.2-2.2l-2.6,0.3c-0.7,0-1.3,0.5-1.6,1.2l-1.4,3.7l0.6,0.5L79.6,34.7z"/>
	</g>
	<g>
		<path class="st0" d="M96.6,56.8c0.7,0.2,1.5,0,1.9-0.6l1.5-2l-3-1.4c-0.4-0.2-0.9-0.2-1.4-0.1l-4.5,1.6l0,0.8L96.6,56.8z"/>
	</g>
	<g>
		<path class="st0" d="M97.5,68.2l2.6-0.3L99.3,66c-0.4-1-1.3-1.7-2.3-1.9L91.6,63l-0.4,0.7l3.6,3.6C95.5,68,96.5,68.4,97.5,68.2z"
			/>
	</g>
	<g>
		<path class="st0" d="M96.8,74.9l3.6-0.3l-0.3-2.3c-0.1-0.7-0.6-1.3-1.4-1.5L92,69.3L91.6,70l3.7,4.2
			C95.7,74.7,96.2,74.9,96.8,74.9z"/>
	</g>
	<g>
		<path class="st0" d="M79.8,37.4l0.3,0.5l4.6-0.8c0.6-0.1,1.1-0.5,1.4-1.1l1.2-3.4l-2.7-0.1c-0.6,0-1.1,0.2-1.4,0.7L79.8,37.4z"/>
	</g>
	<g>
		<path class="st0" d="M95.6,50.5l1.8-2.9l-3.4-0.5c-0.5-0.1-0.9,0-1.3,0.3l-4.5,2.6l0.2,0.7l5.5,0.5C94.6,51.4,95.2,51.1,95.6,50.5
			z"/>
	</g>
	<g>
		<path class="st0" d="M83.9,43.1c0.7,0.1,1-0.2,1.6-0.8l1.8-1.9l-3.1-1c-1.2-0.3-1.7-0.2-2.2,0.3l-3.2,2.2l0.2,0.8L83.9,43.1z"/>
	</g>
	<g>
		<path class="st0" d="M87.9,61.9c0.6,0.1,1.3-0.1,1.7-0.6l1.4-1.8l-1.9-0.9c-0.4-0.2-0.9-0.2-1.3-0.1L83.5,60l0.1,0.7L87.9,61.9z"
			/>
	</g>
	<g>
		<path class="st0" d="M80.1,50.8l-1,4.1l0.6,0.5l3-2.8c0.7-0.8,1-1.1,1-1.8l-0.2-2.1c0,0-1.6,0.6-2.2,0.8
			C80.7,49.7,80.4,49.8,80.1,50.8z"/>
	</g>
	<g>
		<path class="st0" d="M87.2,56.2c0.8-0.2,1.3-0.9,1.2-1.7l-0.2-1.9L85.6,53c-0.4,0-0.7,0.2-0.9,0.5l-3.5,3.8l0.4,0.7L87.2,56.2z"/>
	</g>
	<g>
		<path class="st0" d="M107,38.8l-4.8,1.8l0,0.8l5.3,2c0.7,0.3,1.5,0.1,1.9-0.5l1.7-2l-2.5-1.9C108.2,38.6,107.6,38.6,107,38.8z"/>
	</g>
	<g>
		<path class="st0" d="M77.9,60.2l-2.2,2.1l0.4,0.8l3.4-0.2c0.8,0,1.6-0.6,1.8-1.3l0.7-1.8l-2.9-0.2C78.7,59.7,78.3,59.9,77.9,60.2z
			"/>
	</g>
	<g>
		<path class="st0" d="M87.8,67.3l2.7-1l-1.6-1.8c-0.4-0.4-1-0.7-1.6-0.6l-4.8,0.1l-0.3,0.7l3.6,2.5C86.4,67.5,87.2,67.6,87.8,67.3z
			"/>
	</g>
	<g>
		<path class="st0" d="M78.2,64.9l-4.1-0.1l-0.3,0.5l3.1,2.3c0.5,0.4,1.1,0.5,1.8,0.4l2.5-0.5l-1.4-1.9
			C79.5,65.2,78.9,64.9,78.2,64.9z"/>
	</g>
	<g>
		<path class="st0" d="M16,81.9c-0.3,0.2-0.5,0.5-0.6,0.8l-1,2.7l5-1.2c0.6-0.1,1.1-0.6,1.3-1.2l1.6-4.7L21.4,78L16,81.9z"/>
	</g>
	<g>
		<path class="st0" d="M89.6,71.3c-0.2-0.6-0.7-1.1-1.3-1.2l-5.5-1.2l-0.4,0.7l3.7,4.5c0.4,0.5,1.1,0.8,1.7,0.6l2.8-0.6L89.6,71.3z"
			/>
	</g>
	<g>
		<path class="st0" d="M78,57.2l0-1.4l-1.9,0.2c-0.8,0.1-1.3,0.3-1.5,1.3l-0.7,3.5l-2.2,2.3l-8.6,0c-0.9,0-1.4-1.1-0.8-1.8l4.2-4.8
			l-0.7-0.6L54.1,68.7L53.4,68l1.7-2c0.2-0.2,0.3-0.5,0.2-0.7l-1.1-2.5l5.3-12.4c0.4-1,1.4-1.7,2.6-1.7l3.7,0l1.8-1.9
			c1.6-1.6,2.2-1.9,3.8-1.9l2.9,0l2.5,1.9c0.5,0.4,1,0.3,1.8,0.2l2.2-0.7L79,44.6c-0.8-0.7-1.1-0.6-1.7-0.6l-3.8,0l0,0v0l-3.3,0
			l1.7-1.8l3.1-0.4c0.6-0.1,1-0.5,1.4-1.1l1.3-2.3l-2.4,0c-0.7,0-1.2,0.1-1.6,0.5l-5.2,5.7c-0.5,0.5-1.4,0.6-2,0.6l-7,0l-2.1,2.2
			l-0.7-0.6l1.7-2c0.3-0.3,0.4-0.8,0.4-1.2l-0.6-6.2c0,0-2.2-1.2-2.2-2.5c-0.1-1,0.3-2,1-2.6l1.1-0.8c0.7-0.5,0.9-0.8,1-2.1l0.1-1.9
			L56,28.8c-0.4,0.2-0.9,0.9-0.9,1.3l0,2.4l-0.9,1.6L53,32.8v-1.1l0.5-2.2c0.2-0.7-0.3-1.3-0.8-1.7l-2-1.5l-0.9,2
			c-0.1,0.5,0,1.1,0.3,1.6l1.7,2l0,9.9L47,38.8c-0.7-0.4-1.2-1.1-1.3-1.9l0-1.9l0-3.1c0-1.1,0.1-1.2-0.6-1.8l-1.2-0.9l-1,1.7
			c-0.3,0.5-0.4,1-0.1,1.5l1.9,2.6h0l-0.4,2l-4.5-4.1c-0.4-0.4-1-0.5-1.5-0.4l-2.2,0.9l0.9,1.5c0.4,0.7,0.7,0.7,1.3,0.9l3.5,0.4
			l6.8,9c0.9,1.1,1.1,2.4,0.5,3.6l-1.7,3.5l-0.5,1l-10.5-6.5c-0.8-0.5-0.9-0.6-1.7-0.6l-1.8,0.2l0.7,1.8c0.3,0.7,1,1.3,1.7,1.3
			l3.4,0l2.5,1.5l0,0.4l-3.8,0v0l-3.3,0c-0.7,0-1.3,0.4-1.6,1l-1.2,2.7l2.2,0.1c0.5,0,0.9-0.1,1.2-0.4l2.7-2.4l1.3,0
			c0.9,0,1.4-0.1,1.8,0.6l2.3,3.3c0.9,1.3,1.1,1.9,0.8,2.8l-1.4,3l-2.5,5l-0.2,13.6l-3.4,3.6l0,1.2h26.6l1.1-1.1l-3.9-8.7l2.5-8.2
			c0.3-0.9,1.1-1.5,2.1-1.5l6.1,0l6.6-7.2C78,58,78,57.9,78,57.2z"/>
	</g>
	<g>
		<path class="st0" d="M28.1,55.9l-4.6,2.4c-0.5,0.3-0.9,0.8-0.9,1.4l0,2.7l3.5-1.2c0.4-0.1,0.8-0.5,1-0.9l1.8-4L28.1,55.9z"/>
	</g>
	<g>
		<path class="st0" d="M25.7,64.6l-1,0.1L22.4,71c-0.2,0.5-0.1,1.2,0.2,1.7l1.2,2.7l2.6-3.5c0.5-0.5,0.7-1.3,0.4-1.9L25.7,64.6z"/>
	</g>
	<g>
		<path class="st0" d="M31.2,57.9L28,62.2c-0.4,0.5-0.5,1.1-0.4,1.7l0.6,2l3.1-1.9c0.5-0.3,0.9-0.9,0.8-1.5L32.1,58L31.2,57.9z"/>
	</g>
	<g>
		<path class="st0" d="M89.5,76.4l-0.7,0.4l0.6,5.6c0.1,0.5,0.3,0.9,0.8,1.2l3.5,2l0.6-3.6c0.1-0.5-0.1-1-0.5-1.4L89.5,76.4z"/>
	</g>
	<g>
		<path class="st0" d="M108.1,52.1l-7.1-0.2l-0.3,0.8l5.6,3.7c0.6,0.5,1.5,0.5,2.1,0l2.7-1.7l-1.9-2C109,52.3,108.5,52.1,108.1,52.1
			z"/>
	</g>
	<g>
		<path class="st0" d="M107.2,32l-4.3,4.4l0.4,0.8l6.3-0.7c0.9-0.1,1.6-0.9,1.6-1.8l0-2.7l-2.4-0.5C108.2,31.4,107.6,31.6,107.2,32z
			"/>
	</g>
	<g>
		<path class="st0" d="M106,46.1c-0.1,0-0.1,0.1-0.2,0.1l-5.4,2.4l0.1,0.8l6.9,0.8c0.1,0,0.3,0,0.4,0.1c0.7,0.1,1.1,0.2,2.3-1
			l1.1-1.1l-2.1-1.4C107.3,45.5,107,45.6,106,46.1z"/>
	</g>
	<g>
		<path class="st0" d="M107.6,23.8l-3.7,3.2l0.2,0.8l3.1,0.4c0.2,0,0.3,0,0.5,0c1,0.1,2,0.2,2.5-0.5c0.1-0.2,0.2-0.4,0.3-0.6
			l0.6-2.5l-1.6-1C108.9,23.3,108.2,23.4,107.6,23.8z"/>
	</g>
	<g>
		<path class="st0" d="M110.4,80.6L110.4,80.6l-6.6-4.2l-0.6,0.5l2.3,6.5c0.2,0.6,0.6,1,1.2,1.1l4.5,1l0-3.6
			C111.1,81.4,110.9,80.9,110.4,80.6z"/>
	</g>
	<g>
		<path class="st0" d="M101.6,81.2L101.6,81.2l-5.8-4.7L95.1,77l2.4,7c0.2,0.6,0.8,1,1.4,1l3.6,0.5l-0.2-3
			C102.2,82,102,81.5,101.6,81.2z"/>
	</g>
	<g>
		<path class="st0" d="M109.2,72.1l-6.6-2.1l-0.5,0.7l4.7,5.3c0.4,0.4,0.9,0.6,1.5,0.6l2.9-0.3l-0.8-3
			C110.2,72.7,109.8,72.2,109.2,72.1z"/>
	</g>
	<g>
		<path class="st0" d="M108.2,58.3l-5.3,0l-0.3,0.8l4.3,3.6c0.4,0.3,0.8,0.4,1.2,0.4l3-0.8l-1.8-3.4
			C109.1,58.5,108.7,58.3,108.2,58.3z"/>
	</g>
	<g>
		<path class="st0" d="M110,67c-0.3-0.8-0.4-1-0.9-1.3l-7.3-1.4l-0.4,0.7l4.8,4.3c0.3,0.2,0.6,0.4,0.9,0.5l4.1,0.3l-1-2.7
			C110.1,67.2,110.1,67.1,110,67z"/>
	</g>
	<g>
		<path class="st0" d="M25.5,19L25.5,19l5.5,2.8l0.5-0.6l-3.2-5.7c-0.4-0.5-0.7-0.6-1.6-0.7c-0.1,0-0.2,0-0.4,0l-2.8-0.3l1,3.7
			C24.8,18.5,25.1,18.8,25.5,19z"/>
	</g>
	<g>
		<path class="st0" d="M29.2,28.6l-2.8,1l2,2.5c0.4,0.5,0.9,0.7,1.5,0.7l4.4-0.3l0.2-0.8l-3.7-2.8C30.3,28.5,29.7,28.4,29.2,28.6z"
			/>
	</g>
	<g>
		<path class="st0" d="M14.4,76.6l0.2,2.9l4.2-2.1c0.5-0.2,0.8-0.7,1-1.2l1-4.3l-0.8-0.6L15.1,75C14.6,75.4,14.3,76,14.4,76.6z"/>
	</g>
	<g>
		<path class="st0" d="M34,41.8L30,39.2c-0.5-0.3-1.1-0.3-1.5,0l-2.6,1.5l2.3,1.8c0.3,0.3,0.7,0.4,1.2,0.3l4.7-0.4L34,41.8z"/>
	</g>
	<g>
		<path class="st0" d="M34.7,35.7l-5-1.8c-0.6-0.3-0.9-0.1-1.8,0.2L26.2,35l1.5,1.8c0.4,0.6,1,0.8,1.7,0.7l5.2-1L34.7,35.7z"/>
	</g>
	<g>
		<path class="st0" d="M37.8,42.8l-2.1,0l0.6,1.7c0.1,0.4,0.3,0.6,0.8,0.9l3.1,2l0.4-0.5l-1.4-3.4C38.8,43.1,38.3,42.8,37.8,42.8z"
			/>
	</g>
	<g>
		<path class="st0" d="M32.2,18.6l3.3,3.6l0.7-0.4L35.4,16c-0.2-0.8-0.9-1.4-1.7-1.4l-2,0l0,2.9C31.7,17.9,31.9,18.3,32.2,18.6z"/>
	</g>
	<g>
		<path class="st0" d="M24.6,51.2l-1.8,2.6l2.9,1c0.6,0.2,1.3,0.1,1.8-0.4l3.8-3.4L31,50l-5,0.4C25.4,50.5,24.9,50.7,24.6,51.2z"/>
	</g>
	<g>
		<path class="st0" d="M41,37.8l-3.3-0.6C37,37.1,36.3,37.4,36,38l-1.1,1.8l2.4,0.6c0.5,0.1,1,0,1.4-0.2l2.8-1.8L41,37.8z"/>
	</g>
	<g>
		<path class="st0" d="M31.7,44.9L27,44.3c-0.6-0.1-1.1,0.2-1.5,0.6l-2,2.3l2.9,1.3c0.5,0.2,1.2,0.2,1.7-0.2l3.6-2.5L31.7,44.9z"/>
	</g>
	<g>
		<path class="st0" d="M26.8,22.3L24.2,23l0.5,1.8c0.2,0.6,0.7,1.2,1.3,1.3l5.7,1.2l0.4-0.7l-3.6-3.8C28,22.4,27.4,22.2,26.8,22.3z"
			/>
	</g>
	<g>
		<path class="st0" d="M18,55.1l4.3-5.2l-0.7-0.6l-4.8,1.2c-0.5,0.1-1,0.5-1.1,1.1l-1.3,3.5l2,0.5C17,55.8,17.6,55.6,18,55.1z"/>
	</g>
	<g>
		<path class="st0" d="M19,61.8l2.1-4.8l-0.7-0.7l-4.9,2.8c-0.5,0.3-0.9,0.9-0.9,1.5l-0.2,3.2l3.5-0.9C18.4,62.7,18.8,62.3,19,61.8z
			"/>
	</g>
	<g>
		<path class="st0" d="M18.9,47.9l5.1-4.9l-0.5-0.9l-5.9,1.2c-0.5,0.1-0.9,0.4-1.1,0.7l-2,2.8l2.3,1.3
			C17.4,48.6,18.3,48.5,18.9,47.9z"/>
	</g>
	<g>
		<path class="st0" d="M18.6,69.9l3-5.3L20.9,64l-5,2.1c-0.6,0.2-1,0.8-1.1,1.4l-0.4,2.8l2.3,0.5C17.4,70.9,18.2,70.6,18.6,69.9z"/>
	</g>
	<g>
		<path class="st0" d="M16.5,19.6l6.2,1.2l0.3-0.7L18.7,15c-0.5-0.5-1.4-0.7-2-0.3L14.4,16l0.8,2.5C15.3,19.1,15.9,19.6,16.5,19.6z"
			/>
	</g>
	<g>
		<path class="st0" d="M34,24.4l0.3,3.2c0.1,0.7,0.5,1.3,1.2,1.5l4.5,2l0.5-0.6l-3.7-5.3c-0.3-0.5-0.9-0.8-1.5-0.8L34,24.4z"/>
	</g>
	<g>
		<path class="st0" d="M17.5,28.1l6.6,0.1l0.3-0.8l-5.1-3.9c-0.6-0.4-1.4-0.5-2,0l-3,2l2,2C16.7,27.9,17.1,28.1,17.5,28.1z"/>
	</g>
	<g>
		<path class="st0" d="M19.8,35.1l5.6-2.2l0-0.8l-6.5-2.3c-0.6-0.2-1.2-0.1-1.7,0.3l-2.8,2.4l3.9,2.4C18.7,35.3,19.3,35.3,19.8,35.1
			z"/>
	</g>
	<g>
		<path class="st0" d="M19,40.8l5-2.7l-0.1-1l-6.5-0.5c-0.7-0.1-1.3,0.3-1.6,0.8l-1.5,2.2l3.1,1.3C18,41.1,18.5,41.1,19,40.8z"/>
	</g>
</g>
<g>
	<path class="st0" d="M125.6,100H0V0h125.6V100z M1.4,98.6h122.7V1.4H1.4V98.6z"/>
</g>
<g>
	<g>
		<path class="st0" d="M381.2,33h0.6V16h-2.2v12l-11.4-12.2h-0.5v16.9h2.1v-12L381.2,33z M360.2,33h0.6V16h-2.2v12l-11.4-12.2h-0.5
			v16.9h2.1v-12L360.2,33z M358.8,59h8.8v-1.9H361V51h6.1v-1.9H361v-5h6.6v-1.9h-8.8V59z M332.8,26l2.5-5.9l2.5,5.9H332.8z
			 M327.5,32.8h2.2l2.3-4.9h6.7l2.3,4.9h2.3l-7.5-16.9h-0.6L327.5,32.8z M379.4,84.2h8.8v-1.9h-6.6v-6.1h6.1v-1.9h-6.1v-5h6.6v-1.9
			h-8.8V84.2z M347.4,59h2.2V44.1h5.1v-1.9h-12.4v1.9h5.1V59z M306,32.8h2.1v-12l6.7,7l6.7-7v12h2.1V15.8h-0.5l-8.3,8.9l-8.3-8.9
			H306V32.8z M367.6,84.7c2.3,0,4.2-0.7,5.7-2v-2.5l-0.2-0.1c-1,1.5-2.9,2.7-5.5,2.7c-3.7,0-6.6-3.1-6.6-7.1c0-3.8,2.8-6.9,6.6-6.9
			c2.4,0,4.4,1.1,5.5,2.6l0.2-0.1V69c-1.4-1.3-3.3-2-5.7-2c-4.9,0-8.8,3.8-8.8,8.7C358.9,80.8,362.7,84.7,367.6,84.7z M330.9,59.2
			c3.7,0,7.3-1.9,7.3-7.4v-9.5H336v10.2c0,3.2-2.5,4.9-5.1,4.9c-2.5,0-5.1-1.7-5.1-4.9V42.2h-2.2v9.5
			C323.6,57.3,327.2,59.2,330.9,59.2z M352.9,84.4h0.5V67.5h-2.1v12l-11.4-12.2h-0.5v16.9h2.1v-12L352.9,84.4z M288.1,32.8h12.5
			v-1.9h-8.8l9.6-14.8h-12.3v1.9h8.7L288.1,32.8z M312.3,59h2.1V44.1h5.1v-1.9h-12.4v1.9h5.1V59z M281.6,32.8h2.1V16h-2.1V32.8z
			 M323.7,84.2h8.8v-1.9h-6.6v-6.1h6.2v-1.9h-6.2v-5h6.6v-1.9h-8.8V84.2z M299.9,59h2.1V42.2h-2.1V59z M267,32.8h8.7v-1.9h-6.6v-6
			h6.1v-1.9h-6.1v-5h6.6V16H267V32.8z M314.6,84.2h2.1V67.5h-2.1V84.2z M287.4,59h2.1V44.1h5.2v-1.9h-12.5v1.9h5.1V59z M246.1,33
			h0.6l3.5-6.4l3.5,6.4h0.5l9.9-16.9h-2.6l-7.7,13.4l-2.6-4.9l4.6-8.4h-2.4l-3.3,6.3l-3.3-6.3h-2.5l4.6,8.4l-2.6,4.9L238.8,16h-2.6
			L246.1,33z M302.8,84.7c2.3,0,4.3-0.7,5.7-2v-2.5l-0.2-0.1c-1,1.5-2.9,2.7-5.5,2.7c-3.7,0-6.6-3.1-6.6-7.1c0-3.8,2.9-6.9,6.6-6.9
			c2.4,0,4.4,1.1,5.5,2.6l0.2-0.1V69c-1.4-1.3-3.4-2-5.7-2c-4.9,0-8.7,3.8-8.7,8.7C294.1,80.8,297.9,84.7,302.8,84.7z M273.4,59.3
			c2.9,0,5.5-1.6,5.5-4.8c0-2.8-1.4-4.2-5-5.7c-1.8-0.8-2.6-1.9-2.6-3c0-1.2,0.9-2.1,2.3-2.1c0.9,0,2,0.4,2.9,1.9l1.8-1
			c-1.2-2-2.8-2.8-4.5-2.8c-2.7,0-4.7,1.4-4.7,4.1c0,1.7,1.1,3.4,4.2,4.7c2.8,1.3,3.4,2.2,3.4,3.9c0,1.7-1.3,2.9-3.2,2.9
			c-1.3,0-2.9-0.8-3.9-2.9l-1.7,0.9C268.7,57.9,271,59.3,273.4,59.3z M284.6,84.6c2.9,0,5.5-1.6,5.5-4.7c0-2.8-1.3-4.3-4.9-5.8
			c-1.8-0.7-2.7-1.9-2.7-3c0-1.1,0.9-2,2.3-2c0.9,0,2,0.4,2.9,1.8l1.8-1c-1.2-1.9-2.8-2.7-4.5-2.7c-2.7,0-4.7,1.4-4.7,4.1
			c0,1.7,1,3.4,4.1,4.8c2.8,1.2,3.5,2.1,3.5,3.9c0,1.7-1.3,2.8-3.3,2.8c-1.3,0-2.8-0.8-3.9-2.8l-1.7,0.9
			C280,83.2,282.2,84.6,284.6,84.6z M262,59.2h0.5v-17h-2.1v12L248.9,42h-0.5v17h2.1V47L262,59.2z M239.4,59h2.1V42.2h-2.1V59z
			 M260.7,84.2h2.1v-8h5.9v-1.9h-5.9v-5h6.6v-1.9h-8.7V84.2z M247.3,82.8c-3.9,0-7-3.1-7-7.1c0-3.8,3.1-6.9,7-6.9
			c3.8,0,6.8,3,6.8,6.9C254.1,79.7,251.1,82.8,247.3,82.8z M247.3,84.7c5.1,0,9.1-3.8,9.1-9c0-4.9-4-8.7-9.1-8.7
			c-5.2,0-9.1,3.8-9.1,8.7C238.1,80.8,242.1,84.7,247.3,84.7z"/>
	</g>
	<g>
		<path class="st0" d="M443.7,100H221.1V0l222.6,0V100z M222.6,98.6h219.7V1.4l-219.7,0V98.6z"/>
	</g>
</g>
<g>
	<g>
		<path class="st0" d="M142.3,47.9l-0.4,12.8l3.5,3h0.6l-2.3-15.4c-0.1-0.4,0.1-1.1,0.7-1.8l2.6-3l-4.9-4.1h-1l-2,2.3l4.1,3.5
			c0.6,0.4,0.6,1,0.1,1.5L142.3,47.9z M182.4,34.7h22l2.4-4.3V19.2c0-1.8-1.5-3.2-3.6-3.2h-7.2l-2.2,2.4c-0.7,0.8-2,0.8-2.8,0.1
			l-4.4-3.7h-1l-2,2.3l5.4,4.5c0.7,0.6,0.7,1.4,0,2.2l-1.4,1.7l0.7,0.6l5-5.8c0.5-0.6,1.3-1.1,2.5-1.1h5.6c1.3,0,2,0.5,2.2,1.7
			l1.4,7.7c0.2,0.9,0.1,1.5-0.3,1.9c-0.7,0.9-2.4,1-4.3,1h-17l-1.2,2.5V34.7z M202.6,59.8h0.7l3.1-1.4l-2.1-10.1
			c-0.1-0.4,0.1-1,0.8-1.7l2.6-3l-4.9-4.1h-1l-2,2.3l4.2,3.5c0.6,0.4,0.6,1,0.1,1.5l-0.9,1.1L202.6,59.8z M192.6,49.8l5.6-6.4
			l-4.7-4h-1l-2,2.4l3.5,2.9c0.7,0.6,0.7,1.4,0,2.2l-2,2.3L192.6,49.8z M157.2,34.7h21.7l2.1-4.3V18.4c0-1.4-1.3-2.4-2.9-2.4h-14.9
			c-0.6,0-1.1-0.3-1.5-0.7l-0.5-0.4h-0.9l-2,2.3l2.5,2h15.7c0.9,0,1.3,0.3,1.4,1.1l1.3,8.2c0.1,0.8-0.1,1.4-0.4,1.9
			c-0.7,0.9-2.3,1.1-4.1,1.1h-16.2l-1.3,2.6V34.7z M170.3,59.5h16.2l1.3-2.6c0.3-0.7,0.1-1.3-0.6-1.8l-3.6-2.8
			c-0.7-0.5-0.9-1.5-0.3-2.2l5.7-6.6l-4.8-4h-1l-2,2.3l3.6,3c0.7,0.6,0.7,1.4,0,2.2l-3.3,3.8l-4-3.1c-0.6-0.4-0.5-1.1-0.2-1.5
			l2.3-2.7l-4.9-4.1h-1l-2,2.3l4.1,3.4c0.6,0.5,0.5,1.1,0.1,1.7l-0.9,1.2l8.3,7.6c0.3,0.2,0.2,0.7-0.4,0.7h-11.5l-1.2,2.5V59.5z
			 M151.5,35.3h0.7l3.1-1.4l-2.1-10.1c-0.1-0.6,0.3-1.2,0.8-1.7l2.6-3l-4.9-4.1h-1l-2,2.3l4.2,3.5c0.6,0.5,0.6,1,0.1,1.5l-0.9,1.1
			L151.5,35.3z M145.4,38.8h0.6l-2.3-15.1c-0.1-0.4,0.1-1,0.7-1.7l2.6-3l-4.9-4.1h-1l-2,2.3l4.2,3.5c0.6,0.4,0.6,1,0.1,1.5l-1,1.1
			l-0.4,12.5L145.4,38.8z M147.3,59.5h19.4l2.1-4.3V43.8c0-1.8-1.5-3.3-3.6-3.3h-4l-2.3,2.6c-0.7,0.8-1.9,0.8-2.7,0.1l-4.4-3.8h-1.3
			l-1.9,2.2l5.4,4.6c0.7,0.6,0.8,1.4,0.2,2.2l-1.4,1.7l0.7,0.6l5-5.9c0.4-0.6,1.3-1.1,2.6-1.1h2.9c1.2,0,1.7,0.7,1.9,1.9l1.3,7.9
			c0.2,0.8,0,1.4-0.2,1.8c-0.7,1.1-2.4,1.2-3.8,1.2h-14.6l-1.2,2.5V59.5z M168.5,84.3h20.3L191,80V68.6c0-1.8-1.5-3.3-3.6-3.3h-3.5
			l-2.3,2.6c-0.7,0.8-1.9,0.8-2.7,0.1l-4.4-3.7h-1l-2,2.3l5.2,4.4c0.7,0.6,0.8,1.5,0.2,2.3l-1.4,1.7l0.7,0.6l5-5.7
			c0.4-0.6,1.4-1.1,2.7-1.1h2.3c1.2,0,1.8,0.4,1.9,1.5l1.4,8.1c0.2,0.9,0,1.5-0.3,1.9c-0.8,0.9-2.4,1-4.3,1h-15l-1.2,2.5V84.3z
			 M162.4,84.8h0.7l3.1-1.4l-1.9-8.9c-0.3-1.5-0.1-2.4,1.6-3.9c0.7-0.7,1.5-1.4,3.2-2.5v-1.2c0-1.1-0.4-1.5-1.5-1.5h-13.7
			c-0.7,0-1.1-0.2-1.7-0.6l-0.5-0.4h-0.9l-2,2.3l2.4,2h13.3c0.8,0,1.3,0.4,1.3,0.9c0,0.3-0.1,0.5-0.3,0.7l-2.5,2.5L162.4,84.8z
			 M139.4,85.1c5.6-1.4,10.6-3.5,13.8-7.9c0.6-1.3,1.1-3.2,1.4-5.6l-0.6-0.5c-0.7,2.2-2.6,5-4.1,5.9c-0.5,0.3-1.1,0.3-1.5-0.2
			l-3.5-3.8c-0.4-0.4-0.6-0.7-0.6-1c0-0.3,0.2-0.7,0.5-1.1l2.1-2.4l-5-4.3h-1l-2,2.3l4.2,3.5c0.6,0.4,0.6,1,0.1,1.5l-1,1.1l4,6.4
			c-1.3,0.8-3.8,1.7-5.6,2l-1.7,3.5L139.4,85.1z M192.5,84.7c7-1.8,12.4-5,14.4-8.8v-8.8c0-0.9-1-1.8-2.3-1.8h-7c-1.4,0-1.9-0.3-2-1
			l-0.5-2.6c-0.1-0.4,0.1-1,0.8-1.7l2.6-3l-4.3-3.6h-0.9l-2,2.3l3.6,3c0.3,0.2,0.4,0.6,0.4,0.8c0,0.2-0.1,0.5-0.3,0.7l-0.9,1.1v6.4
			c0.6,0.6,1.1,0.8,2.2,0.8h6.9c0.6,0,1,0.3,1.1,0.8l0.9,4.9c0.2,0.8-0.1,1.2-0.4,1.6c-2.3,2.2-6.1,3.5-10.8,4.9l-1.7,3.5
			L192.5,84.7z"/>
	</g>
	<g>
		<path class="st0" d="M222.6,100h-98.4V0h98.4V100z M125.6,98.6h95.6V1.4h-95.6V98.6z"/>
	</g>
</g>
</svg>
